<svg width="240" height="72" viewBox="0 0 240 72" fill="none" xmlns="http://www.w3.org/2000/svg">
  <rect x="1.5" y="1.5" width="237" height="69" rx="12" fill="url(#grad)" stroke="#0F172A" stroke-opacity="0.06" stroke-width="3"/>
  <path d="M32 49V23H39.8C43.8 23 46.6 24.2 48.3 26.4C49.9 28.6 50.3 31.5 49.6 34.2C48.8 36.9 47.1 38.8 44.5 39.8L50.4 49H44.9L39.5 40.4H37.1V49H32ZM37.1 36.3H39.7C41.4 36.3 42.6 35.9 43.4 35C44.2 34 44.6 32.8 44.6 31.3C44.6 29.8 44.2 28.6 43.4 27.8C42.6 26.9 41.4 26.5 39.7 26.5H37.1V36.3Z" fill="#0F172A" fill-opacity="0.82"/>
  <path d="M66.9 49H62.1L53.7 23H58.8L64.6 43.2L70.4 23H75.5L66.9 49Z" fill="#0F172A" fill-opacity="0.82"/>
  <path d="M82 49L74.8 23H80L84.5 40.7L89 23H94.2L87 49H82Z" fill="#0F172A" fill-opacity="0.82"/>
  <path d="M109.4 49L107.7 43.9H99.2L97.5 49H92.4L100.1 23H107L114.8 49H109.4ZM100.5 39.6H106.3L103.4 29.7L100.5 39.6Z" fill="#0F172A" fill-opacity="0.82"/>
  <path d="M136.5 49H131.7L123.3 23H128.4L134.2 43.2L140 23H145.1L136.5 49Z" fill="#0F172A" fill-opacity="0.82"/>
  <path d="M160.5 49H155.7L147.3 23H152.4L158.2 43.2L164 23H169.1L160.5 49Z" fill="#0F172A" fill-opacity="0.82"/>
  <path d="M182.8 49H178V23H182.8V49Z" fill="#0F172A" fill-opacity="0.82"/>
  <path d="M190 49V23H201.9C204.6 23 206.7 23.8 208.3 25.2C209.8 26.7 210.6 28.6 210.6 30.9C210.6 33.1 209.8 35 208.3 36.5C206.7 38 204.6 38.8 201.9 38.8H194.8V49H190ZM194.8 35H201.6C203.1 35 204.3 34.6 205.2 33.7C206.1 32.8 206.5 31.6 206.5 30.2C206.5 28.7 206.1 27.5 205.2 26.6C204.3 25.7 203.1 25.3 201.6 25.3H194.8V35Z" fill="#0F172A" fill-opacity="0.82"/>
  <defs>
    <linearGradient id="grad" x1="0" y1="0" x2="240" y2="72" gradientUnits="userSpaceOnUse">
      <stop stop-color="#0EA5E9" stop-opacity="0.12"/>
      <stop offset="1" stop-color="#F97316" stop-opacity="0.18"/>
    </linearGradient>
  </defs>
</svg>
